# xmcd CD database file
#
# Track frame offsets:
#	150
#	31796
#	74547
#	112642
#	161950
#
# Disc length: 2952 seconds
#
# Revision: 0
# Processed by: cddbd v1.5.2PL0 Copyright (c) Steve Scherf et al.
# Submitted via: CDex 1.77
#
DISCID=380b8605
DTITLE=Fabrizio Bosso Quartet - State Of The Art - Live [CD1)
DYEAR=2017
DGENRE=Jazz
TTITLE0=Pure Imagination
TTITLE1=Minor Mood
TTITLE2=Rumba For Kampei
TTITLE3=The Neraness Of You
TTITLE4=There is no Greater Love
EXTD=YEAR: 2017
EXTT0=
EXTT1=
EXTT2=
EXTT3=
EXTT4=
PLAYORDER=
